<svg width="256" height="256" viewBox="0 0 256 256" fill="none" xmlns="http://www.w3.org/2000/svg">
<path d="M128.825 242C97.2008 242 70.3238 230.9 48.1943 208.699C26.0648 186.488 15 159.525 15 127.808C15 98.898 24.3906 73.8233 43.1717 52.5835C61.9719 31.3628 85.2302 18.835 112.947 15C113.715 15 114.469 15.0285 115.209 15.0856C115.949 15.1427 116.674 15.2236 117.386 15.3283C112.586 22.0466 108.787 29.5167 105.989 37.7385C103.191 45.9699 101.792 54.5867 101.792 63.5888C101.792 88.968 110.642 110.536 128.341 128.293C146.051 146.059 167.554 154.943 192.852 154.943C201.882 154.943 210.481 153.539 218.648 150.732C226.824 147.925 234.166 144.113 240.673 139.298C240.787 140.012 240.872 140.74 240.929 141.482C240.976 142.224 241 142.976 241 143.738C237.358 171.553 224.955 194.886 203.793 213.737C182.631 232.589 157.651 242.01 128.825 242ZM128.811 227.726C149.679 227.726 168.413 221.954 185.012 210.412C201.612 198.869 213.706 183.824 221.294 165.277C216.551 166.467 211.809 167.418 207.066 168.132C202.323 168.846 197.58 169.202 192.838 169.202C163.679 169.202 138.842 158.916 118.325 138.342C97.8079 117.768 87.5541 92.8458 87.5636 63.5745C87.5636 58.8165 87.9193 54.0585 88.6307 49.3005C89.3421 44.5425 90.2906 39.7845 91.4763 35.0265C72.9797 42.6393 57.9785 54.7722 46.4727 71.4253C34.9668 88.0783 29.2187 106.872 29.2282 127.808C29.2282 155.404 38.9507 178.956 58.3959 198.464C77.841 217.972 101.303 227.726 128.811 227.726Z" fill="white"/>
</svg>
