<svg width="166" height="40" viewBox="0 0 166 40" fill="none" xmlns="http://www.w3.org/2000/svg">
<path d="M53.88 26H49.12V12.6H53.88C58.02 12.6 60.66 15.16 60.66 19.3C60.66 23.44 58.02 26 53.88 26ZM53.88 14.54H51.28V24.06H53.88C57.08 24.06 58.36 22.74 58.36 19.3C58.36 15.86 57.08 14.54 53.88 14.54ZM64.4784 14.8H62.3384L62.3184 12.6H64.4784V14.8ZM64.4984 26H62.3384V16H64.4984V26ZM70.9442 26.2C67.8842 26.2 65.9842 24.12 65.9842 21.02C65.9842 17.94 67.8842 15.86 70.9442 15.86C73.9842 15.86 75.8242 17.94 75.8242 21.02C75.8242 24.12 73.9842 26.2 70.9442 26.2ZM70.9442 24.28C73.0242 24.28 73.7442 23.26 73.7442 21.02C73.7442 18.8 73.0242 17.78 70.9442 17.78C68.8442 17.78 68.1042 18.8 68.1042 21.02C68.1042 23.26 68.8442 24.28 70.9442 24.28ZM81.3966 25.06C78.6566 25.06 77.1366 23.26 77.1366 20.46C77.1366 17.66 78.6766 15.86 81.4766 15.86C83.0766 15.86 84.3166 16.54 84.7966 17.7H84.8766V16.06H86.8566V25.28C86.8566 28.22 85.1366 29.6 82.2366 29.6C79.4166 29.6 77.6566 28.26 77.6566 25.86H79.7966C79.7966 27.22 80.2966 27.68 82.2966 27.68C84.2366 27.68 84.7166 27.12 84.7166 25.28V23.3H84.6366C84.1766 24.26 83.0166 25.06 81.3966 25.06ZM79.2966 20.46C79.2966 22.5 80.1366 23.22 82.0166 23.22C83.6366 23.22 84.7166 22.44 84.7166 20.76V20.14C84.7166 18.48 83.6366 17.7 81.9766 17.7C80.1166 17.7 79.2966 18.42 79.2966 20.46ZM93.4442 26.2C90.3842 26.2 88.4842 24.12 88.4842 21.02C88.4842 17.94 90.3842 15.86 93.4442 15.86C96.4842 15.86 98.3242 17.94 98.3242 21.02C98.3242 24.12 96.4842 26.2 93.4442 26.2ZM93.4442 24.28C95.5242 24.28 96.2442 23.26 96.2442 21.02C96.2442 18.8 95.5242 17.78 93.4442 17.78C91.3442 17.78 90.6042 18.8 90.6042 21.02C90.6042 23.26 91.3442 24.28 93.4442 24.28ZM105.517 26.2C101.657 26.2 99.9766 24.42 99.9766 21.84V21.5H102.097V21.72C102.097 23.38 102.797 24.22 105.597 24.22C107.577 24.22 108.297 23.68 108.297 22.44C108.297 21.22 107.897 20.78 105.837 20.36L103.557 19.9C101.257 19.46 100.017 18.34 100.017 16.22C100.017 14.24 101.557 12.4 105.017 12.4C108.717 12.4 110.197 14.48 110.197 16.86V17.1H108.077V16.88C108.077 15.24 107.357 14.38 104.957 14.38C102.977 14.38 102.177 14.94 102.177 16.12C102.177 17.34 102.717 17.68 104.557 18.08L106.837 18.56C109.357 19.08 110.457 20.34 110.457 22.36C110.457 24.46 108.937 26.2 105.517 26.2ZM116.45 26.22C113.35 26.22 111.59 24.12 111.59 21.04C111.59 17.94 113.41 15.86 116.53 15.86C119.15 15.86 120.95 17.48 120.95 19.86V20.04H118.81V19.92C118.81 18.46 118.05 17.8 116.39 17.8C114.47 17.8 113.73 18.88 113.73 21.04C113.73 23.2 114.47 24.26 116.39 24.26C118.05 24.26 118.81 23.62 118.81 22.16V22.04H120.95V22.22C120.95 24.58 119.13 26.22 116.45 26.22ZM127.233 26.2C124.173 26.2 122.273 24.12 122.273 21.02C122.273 17.94 124.173 15.86 127.233 15.86C130.273 15.86 132.113 17.94 132.113 21.02C132.113 24.12 130.273 26.2 127.233 26.2ZM127.233 24.28C129.313 24.28 130.033 23.26 130.033 21.02C130.033 18.8 129.313 17.78 127.233 17.78C125.133 17.78 124.393 18.8 124.393 21.02C124.393 23.26 125.133 24.28 127.233 24.28ZM135.908 26H133.748V12.6H135.908V17.72H135.988C136.448 16.82 137.508 15.86 139.308 15.86C141.908 15.86 143.008 17.56 143.008 19.74V26H140.848V20.24C140.848 18.46 140.288 17.72 138.468 17.72C136.708 17.72 135.908 18.4 135.908 20.28V26ZM147.815 26.2C146.035 26.2 144.655 25.28 144.655 23.54C144.655 21.9 145.855 21.04 147.975 20.74L151.455 20.22V19.68C151.455 18.2 150.775 17.76 149.215 17.76C147.635 17.76 147.015 18.26 147.015 19.58V19.88H144.935V19.68C144.935 17.46 146.675 15.86 149.335 15.86C152.115 15.86 153.515 17.54 153.515 19.96V26H151.515V24.44H151.415C150.835 25.38 149.695 26.2 147.815 26.2ZM146.755 23.38C146.755 24.16 147.255 24.48 148.515 24.48C149.915 24.48 151.455 23.92 151.455 21.92V21.74L148.295 22.22C147.155 22.38 146.755 22.64 146.755 23.38ZM159.626 26C157.406 26 156.246 25.18 156.246 22.94V17.86H154.586V16.06H156.286L156.746 13.6H158.406V16.06H161.406V17.86H158.406V22.84C158.406 23.88 158.846 24.06 160.186 24.06H161.406V25.82C160.986 25.92 160.306 26 159.626 26ZM164.83 14.8H162.69L162.67 12.6H164.83V14.8ZM164.85 26H162.69V16H164.85V26Z" fill="black"/>
<rect width="40" height="40" rx="20" fill="#FAD007"/>
<g clip-path="url(#clip0_584_3875)">
<path d="M16.1426 26L11.6426 20L16.1426 14M23.8569 26L28.3569 20L23.8569 14" stroke="white" stroke-width="2" stroke-linecap="round" stroke-linejoin="round"/>
</g>
<defs>
<clipPath id="clip0_584_3875">
<rect width="18" height="24" fill="white" transform="translate(11 8)"/>
</clipPath>
</defs>
</svg>
